<svg id="svg" version="1.1" xmlns="http://www.w3.org/2000/svg" xmlns:xlink="http://www.w3.org/1999/xlink" width="400" height="325.06666666666666" viewBox="0, 0, 400,325.06666666666666"><g id="svgg"><path id="path0" d="M154.533 44.444 C 106.969 47.352,74.149 91.387,85.201 137.467 C 92.874 169.453,120.980 192.910,153.933 194.829 L 157.067 195.012 157.067 172.192 L 157.067 149.372 155.533 149.191 C 132.623 146.486,121.144 121.404,134.169 102.512 C 138.875 95.687,148.682 90.133,156.029 90.133 L 157.067 90.133 157.067 67.200 L 157.067 44.267 156.467 44.315 C 156.137 44.341,155.267 44.399,154.533 44.444 M226.933 71.467 L 226.933 84.267 220.533 84.267 L 214.133 84.267 214.133 90.262 L 214.133 96.257 220.467 96.329 L 226.800 96.400 226.933 133.467 C 227.054 167.031,227.108 170.636,227.505 171.619 C 230.312 178.578,235.146 181.189,245.200 181.178 C 249.434 181.174,255.793 180.565,256.600 180.087 C 256.710 180.022,256.800 177.202,256.800 173.820 L 256.800 167.671 256.200 167.863 C 253.012 168.882,244.764 168.160,243.407 166.743 C 241.617 164.875,241.741 167.478,241.662 130.067 L 241.590 96.267 249.195 96.267 L 256.800 96.267 256.800 90.267 L 256.800 84.267 249.200 84.267 L 241.600 84.267 241.600 71.467 L 241.600 58.667 234.267 58.667 L 226.933 58.667 226.933 71.467 M0.058 253.400 L 0.133 267.867 1.047 269.552 C 2.536 272.298,4.969 274.092,7.979 274.663 C 8.923 274.842,34.632 274.933,83.927 274.933 L 158.447 274.933 158.269 276.067 C 158.052 277.446,147.207 316.322,146.964 316.591 C 146.869 316.696,144.094 317.118,140.796 317.530 L 134.801 318.278 134.412 319.645 L 134.022 321.013 128.811 321.180 C 103.316 321.997,99.478 322.250,100.741 323.030 C 105.099 325.724,296.537 325.639,299.294 322.942 C 300.022 322.229,295.124 321.921,271.163 321.174 L 265.925 321.011 265.284 319.509 L 264.643 318.007 258.388 317.199 L 252.133 316.392 246.612 296.396 C 243.575 285.398,241.016 276.070,240.924 275.667 L 240.758 274.933 315.676 274.933 C 365.239 274.933,391.077 274.842,392.021 274.663 C 395.031 274.092,397.464 272.298,398.953 269.552 L 399.867 267.867 399.942 253.400 L 400.018 238.933 200.000 238.933 L -0.018 238.933 0.058 253.400 M202.484 248.958 C 207.703 250.736,209.297 257.735,205.398 261.750 C 202.344 264.894,196.910 264.855,194.112 261.668 C 188.656 255.455,194.686 246.301,202.484 248.958 " stroke="none" fill="#e0e1e3" fill-rule="evenodd"></path><path id="path1" d="M6.512 0.485 C 3.826 1.415,1.537 3.645,0.543 6.302 L -0.000 7.753 -0.000 123.343 L 0.000 238.933 200.001 238.933 L 400.002 238.933 399.934 123.000 L 399.867 7.067 399.152 5.541 C 398.269 3.657,396.467 1.869,394.458 0.882 L 392.933 0.133 200.400 0.075 C 17.312 0.020,7.800 0.040,6.512 0.485 M157.333 71.560 L 157.333 98.854 159.570 99.012 C 176.239 100.188,184.816 119.345,174.549 132.467 C 170.977 137.032,165.576 139.890,159.935 140.201 L 157.336 140.344 157.268 167.705 L 157.200 195.067 154.533 194.999 C 123.653 194.209,94.542 171.301,85.900 140.990 C 72.793 95.014,103.612 49.450,151.200 44.450 C 151.713 44.396,153.303 44.333,154.733 44.309 L 157.333 44.267 157.333 71.560 M241.600 71.467 L 241.600 84.267 249.333 84.267 L 257.067 84.267 257.067 90.400 L 257.067 96.533 249.333 96.533 L 241.600 96.533 241.605 128.733 C 241.611 165.681,241.590 165.318,243.871 167.002 C 245.538 168.233,252.162 168.660,255.787 167.771 C 257.135 167.440,257.067 167.105,257.067 174.013 L 257.067 180.203 254.067 180.698 C 243.477 182.447,234.285 180.828,230.288 176.510 C 226.487 172.405,226.667 174.598,226.667 132.243 L 226.667 96.533 220.400 96.533 L 214.133 96.533 214.133 90.400 L 214.133 84.267 220.400 84.267 L 226.667 84.267 226.667 71.467 L 226.667 58.667 234.133 58.667 L 241.600 58.667 241.600 71.467 M155.271 107.611 C 145.874 110.142,142.752 121.610,149.597 128.454 C 155.660 134.517,165.883 132.722,169.596 124.942 C 174.063 115.582,165.252 104.923,155.271 107.611 M197.779 248.901 C 193.997 249.961,191.460 253.955,192.245 257.616 C 194.148 266.490,206.778 265.831,207.398 256.827 C 207.762 251.552,202.827 247.486,197.779 248.901 " stroke="none" fill="#1c1c1c" fill-rule="evenodd"></path><path id="path2" d="M217.400 96.466 C 219.123 96.512,221.943 96.512,223.667 96.466 C 225.390 96.419,223.980 96.381,220.533 96.381 C 217.087 96.381,215.677 96.419,217.400 96.466 M245.416 96.466 C 247.589 96.511,251.069 96.511,253.150 96.466 C 255.231 96.421,253.453 96.384,249.200 96.384 C 244.947 96.384,243.244 96.421,245.416 96.466 " stroke="none" fill="#939494" fill-rule="evenodd"></path><path id="path3" d="M158.070 99.122 C 158.401 99.186,158.881 99.183,159.136 99.117 C 159.391 99.050,159.120 98.998,158.533 99.001 C 157.947 99.004,157.738 99.058,158.070 99.122 " stroke="none" fill="#7b7b7b" fill-rule="evenodd"></path><path id="path4" d="M154.467 44.450 C 154.723 44.518,155.143 44.518,155.400 44.450 C 155.657 44.383,155.447 44.329,154.933 44.329 C 154.420 44.329,154.210 44.383,154.467 44.450 M226.790 71.467 C 226.790 78.580,226.824 81.490,226.866 77.933 C 226.908 74.377,226.908 68.557,226.866 65.000 C 226.824 61.443,226.790 64.353,226.790 71.467 M104.926 66.467 L 103.067 68.400 105.000 66.540 C 106.796 64.813,107.055 64.533,106.860 64.533 C 106.819 64.533,105.949 65.403,104.926 66.467 M152.700 90.548 C 131.890 94.683,122.016 118.535,133.791 136.231 C 138.606 143.469,146.396 148.112,155.533 149.191 L 157.067 149.372 157.067 144.819 L 157.067 140.267 158.282 140.267 C 171.783 140.267,181.746 127.147,178.121 114.141 C 175.735 105.580,167.637 99.200,159.157 99.200 L 157.067 99.200 157.067 94.667 L 157.067 90.133 155.800 90.158 C 155.103 90.172,153.708 90.347,152.700 90.548 M226.796 131.867 C 226.796 151.373,226.828 159.314,226.867 149.513 C 226.905 139.711,226.905 123.751,226.867 114.046 C 226.828 104.341,226.796 112.360,226.796 131.867 M160.872 107.325 C 170.707 109.409,174.312 121.464,167.221 128.555 C 161.139 134.637,150.826 132.938,147.071 125.235 C 142.452 115.759,150.624 105.154,160.872 107.325 M82.995 116.533 C 82.995 117.047,83.050 117.257,83.117 117.000 C 83.184 116.743,83.184 116.323,83.117 116.067 C 83.050 115.810,82.995 116.020,82.995 116.533 M82.995 122.667 C 82.995 123.180,83.050 123.390,83.117 123.133 C 83.184 122.877,83.184 122.457,83.117 122.200 C 83.050 121.943,82.995 122.153,82.995 122.667 " stroke="none" fill="#9c9c9c" fill-rule="evenodd"></path><path id="path5" d="" stroke="none" fill="#949c9c" fill-rule="evenodd"></path><path id="path6" d="M157.195 71.600 C 157.195 86.707,157.227 92.848,157.267 85.246 C 157.306 77.645,157.306 65.285,157.267 57.780 C 157.227 50.274,157.195 56.493,157.195 71.600 M104.917 66.200 L 104.133 67.067 105.000 66.283 C 105.808 65.553,105.989 65.333,105.783 65.333 C 105.737 65.333,105.347 65.723,104.917 66.200 M157.195 167.600 C 157.195 182.707,157.227 188.848,157.267 181.246 C 157.306 173.645,157.306 161.285,157.267 153.780 C 157.227 146.274,157.195 152.493,157.195 167.600 M103.200 171.333 C 103.698 171.847,104.165 172.267,104.238 172.267 C 104.311 172.267,103.964 171.847,103.467 171.333 C 102.969 170.820,102.502 170.400,102.429 170.400 C 102.355 170.400,102.702 170.820,103.200 171.333 M106.533 174.667 C 107.106 175.253,107.635 175.733,107.708 175.733 C 107.782 175.733,107.373 175.253,106.800 174.667 C 106.227 174.080,105.698 173.600,105.625 173.600 C 105.552 173.600,105.960 174.080,106.533 174.667 " stroke="none" fill="#565757" fill-rule="evenodd"></path><path id="path7" d="" stroke="none" fill="#646464" fill-rule="evenodd"></path><path id="path8" d="M256.914 90.267 C 256.915 93.640,256.953 94.983,256.999 93.252 C 257.046 91.520,257.046 88.760,256.999 87.118 C 256.952 85.477,256.914 86.893,256.914 90.267 M256.915 173.867 C 256.915 177.313,256.953 178.723,256.999 177.000 C 257.046 175.277,257.046 172.457,256.999 170.733 C 256.953 169.010,256.915 170.420,256.915 173.867 " stroke="none" fill="#646c6c" fill-rule="evenodd"></path></g></svg>